<svg width="34" height="34" viewBox="0 0 34 34" fill="none" xmlns="http://www.w3.org/2000/svg">
<path d="M2.53333 11.8336H31.4667M2.53333 22.1669H31.4667M1.5 17.0002C1.5 19.0357 1.90092 21.0513 2.67987 22.9318C3.45881 24.8124 4.60054 26.5211 6.03984 27.9604C7.47915 29.3997 9.18786 30.5414 11.0684 31.3204C12.949 32.0993 14.9645 32.5002 17 32.5002C19.0355 32.5002 21.051 32.0993 22.9316 31.3204C24.8121 30.5414 26.5208 29.3997 27.9602 27.9604C29.3995 26.5211 30.5412 24.8124 31.3201 22.9318C32.0991 21.0513 32.5 19.0357 32.5 17.0002C32.5 12.8894 30.867 8.9469 27.9602 6.04009C25.0533 3.13328 21.1109 1.50024 17 1.50024C12.8891 1.50024 8.94666 3.13328 6.03984 6.04009C3.13303 8.9469 1.5 12.8894 1.5 17.0002Z" stroke="#F4D182" stroke-width="3" stroke-linecap="round" stroke-linejoin="round"/>
<path d="M16.139 1.50024C13.2376 6.14958 11.6995 11.5199 11.6995 17.0002C11.6995 22.4806 13.2376 27.8509 16.139 32.5002M17.8612 1.50024C20.7626 6.14958 22.3008 11.5199 22.3008 17.0002C22.3008 22.4806 20.7626 27.8509 17.8612 32.5002" stroke="#F4D182" stroke-width="3" stroke-linecap="round" stroke-linejoin="round"/>
</svg>
