<svg width="28" height="31" viewBox="0 0 28 31" fill="none" xmlns="http://www.w3.org/2000/svg">
<path d="M26.25 0H22.75C22.2859 0 21.8408 0.181528 21.5126 0.504651C21.1844 0.827774 21 1.26602 21 1.72299V31H28V1.72299C28 1.26602 27.8156 0.827774 27.4874 0.504651C27.1593 0.181528 26.7141 0 26.25 0ZM15.75 10.3379H12.25C11.7859 10.3379 11.3408 10.5195 11.0126 10.8426C10.6844 11.1657 10.5 11.604 10.5 12.0609V31H17.5V12.0609C17.5 11.604 17.3156 11.1657 16.9874 10.8426C16.6592 10.5195 16.2141 10.3379 15.75 10.3379ZM5.25 20.6759H1.75C1.28587 20.6759 0.840752 20.8574 0.512563 21.1805C0.184374 21.5036 0 21.9419 0 22.3988V31H7V22.3988C7 21.9419 6.81563 21.5036 6.48744 21.1805C6.15925 20.8574 5.71413 20.6759 5.25 20.6759Z" fill="#F4D182"/>
</svg>
