<svg width="32" height="26" viewBox="0 0 32 26" fill="none" xmlns="http://www.w3.org/2000/svg">
<path d="M12.415 1.68997C10.0065 0.568898 6.64012 0.0197347 2.13316 0.000237809C1.70811 -0.00539219 1.29139 0.115444 0.938592 0.346633C0.649008 0.537462 0.411959 0.794742 0.248295 1.09584C0.0846317 1.39695 -0.000632188 1.73264 3.52894e-06 2.07341V20.667C3.52894e-06 21.9239 0.91726 22.8721 2.13316 22.8721C6.87076 22.8721 11.623 23.3036 14.4695 25.9266C14.5084 25.9626 14.5573 25.9867 14.6102 25.9959C14.6631 26.005 14.7175 25.9988 14.7668 25.9781C14.8161 25.9573 14.8581 25.9229 14.8874 25.8791C14.9168 25.8352 14.9323 25.784 14.9321 25.7316V3.82293C14.9322 3.67512 14.8997 3.52902 14.8369 3.39448C14.7741 3.25995 14.6825 3.14011 14.5681 3.04306C13.9161 2.49964 13.1919 2.0445 12.415 1.68997ZM31.0587 0.344683C30.7058 0.11407 30.289 -0.0060919 29.8642 0.000237809C25.3572 0.0197347 21.9908 0.566298 19.5824 1.68997C18.8055 2.04385 18.0811 2.49809 17.4285 3.04046C17.3144 3.13765 17.223 3.25753 17.1603 3.39205C17.0976 3.52656 17.0652 3.6726 17.0652 3.82033V25.7303C17.0652 25.7806 17.0804 25.8298 17.109 25.8717C17.1375 25.9136 17.1781 25.9464 17.2256 25.9659C17.2732 25.9854 17.3256 25.9908 17.3763 25.9814C17.427 25.9719 17.4737 25.9481 17.5105 25.9129C19.2217 24.2557 22.2248 22.8701 29.8668 22.8708C30.4326 22.8708 30.9752 22.6517 31.3752 22.2617C31.7753 21.8716 32 21.3427 32 20.7911V2.07406C32.0008 1.73262 31.9153 1.39625 31.7512 1.09464C31.587 0.793028 31.3492 0.535462 31.0587 0.344683Z" fill="#F4D182"/>
</svg>
