<svg width="30" height="31" viewBox="0 0 30 31" fill="none" xmlns="http://www.w3.org/2000/svg">
<path d="M6.66667 13.4333V6.88888H3.33333V8.6111C3.33333 9.70184 3.63889 10.6852 4.25 11.5613C4.86111 12.4373 5.66667 13.0613 6.66667 13.4333ZM23.3333 13.4333C24.3333 13.0602 25.1389 12.4356 25.75 11.5595C26.3611 10.6835 26.6667 9.7007 26.6667 8.6111V6.88888H23.3333V13.4333ZM13.3333 27.5555V22.2166C11.9722 21.9009 10.7572 21.3056 9.68833 20.4307C8.61944 19.5558 7.83444 18.4576 7.33333 17.1361C5.25 16.8778 3.50722 15.938 2.105 14.3168C0.702778 12.6956 0.00111111 10.7937 0 8.6111V6.88888C0 5.94166 0.326667 5.13107 0.98 4.45711C1.63333 3.78314 2.41778 3.44559 3.33333 3.44444H6.66667C6.66667 2.49722 6.99333 1.68663 7.64667 1.01267C8.3 0.338704 9.08444 0.00114815 10 0H20C20.9167 0 21.7017 0.337555 22.355 1.01267C23.0083 1.68778 23.3344 2.49837 23.3333 3.44444H26.6667C27.5833 3.44444 28.3683 3.782 29.0217 4.45711C29.675 5.13222 30.0011 5.94281 30 6.88888V8.6111C30 10.7926 29.2983 12.6945 27.895 14.3168C26.4917 15.9392 24.7489 16.8789 22.6667 17.1361C22.1667 18.4565 21.3822 19.5547 20.3133 20.4307C19.2444 21.3067 18.0289 21.9021 16.6667 22.2166V27.5555H21.6667C22.1389 27.5555 22.535 27.7209 22.855 28.0515C23.175 28.3822 23.3344 28.7909 23.3333 29.2778C23.3322 29.7646 23.1722 30.1739 22.8533 30.5057C22.5344 30.8375 22.1389 31.0023 21.6667 31H8.33333C7.86111 31 7.46556 30.8346 7.14667 30.504C6.82778 30.1733 6.66778 29.7646 6.66667 29.2778C6.66556 28.7909 6.82555 28.3822 7.14667 28.0515C7.46778 27.7209 7.86333 27.5555 8.33333 27.5555H13.3333Z" fill="#F4D182"/>
</svg>
