<svg width="26" height="34" viewBox="0 0 26 34" fill="none" xmlns="http://www.w3.org/2000/svg">
<path d="M2.6 0C1.1804 0 0 1.18738 0 2.61538V27.4615C0 28.8895 1.1804 30.0769 2.6 30.0769H5.2V34L9.1 31.3846L13 34V24.6422C12.8206 24.7462 12.6294 24.8283 12.4306 24.8867C12.2917 25.1885 12.0945 25.4595 11.8506 25.6839C11.6067 25.9084 11.3208 26.0819 11.0097 26.1944C10.7348 26.2853 10.4461 26.3269 10.1569 26.3173C9.7929 26.3173 9.4289 26.2702 9.1 26.1133C8.76689 26.2586 8.40602 26.3283 8.0431 26.3173C7.7519 26.3173 7.4672 26.2951 7.1903 26.1944C6.56286 25.965 6.05142 25.4948 5.7681 24.8867C5.56974 24.8282 5.37903 24.7461 5.2 24.6422V27.4615H2.6V2.61538H23.4V27.4615H16.9C16.5552 27.4615 16.2246 27.5993 15.9808 27.8446C15.737 28.0898 15.6 28.4224 15.6 28.7692C15.6 29.1161 15.737 29.4487 15.9808 29.6939C16.2246 29.9391 16.5552 30.0769 16.9 30.0769H23.4C24.8196 30.0769 26 28.8895 26 27.4615V2.61538C26 1.18738 24.8196 0 23.4 0H2.6ZM6.2569 6.53846C5.91212 6.57089 5.59426 6.73976 5.37326 7.00793C5.15226 7.2761 5.04621 7.6216 5.07845 7.96842C5.11069 8.31524 5.27857 8.63498 5.54516 8.85729C5.81175 9.0796 6.15522 9.18627 6.5 9.15385H19.5C19.8448 9.15385 20.1754 9.01607 20.4192 8.77083C20.663 8.52559 20.8 8.19298 20.8 7.84615C20.8 7.49933 20.663 7.16672 20.4192 6.92148C20.1754 6.67624 19.8448 6.53846 19.5 6.53846H6.5C6.45929 6.53653 6.41851 6.53653 6.3778 6.53846C6.33752 6.53658 6.29718 6.53658 6.2569 6.53846ZM6.2569 11.7692C5.91212 11.8017 5.59426 11.9705 5.37326 12.2387C5.15226 12.5069 5.04621 12.8524 5.07845 13.1992C5.11069 13.546 5.27857 13.8657 5.54516 14.0881C5.81175 14.3104 6.15522 14.417 6.5 14.3846H15.6C15.9448 14.3846 16.2754 14.2468 16.5192 14.0016C16.763 13.7564 16.9 13.4237 16.9 13.0769C16.9 12.7301 16.763 12.3975 16.5192 12.1522C16.2754 11.907 15.9448 11.7692 15.6 11.7692H6.5C6.45929 11.7673 6.41851 11.7673 6.3778 11.7692C6.33752 11.7673 6.29718 11.7673 6.2569 11.7692ZM9.1 16.5502C8.83895 16.5504 8.58463 16.6335 8.37318 16.7875C8.16174 16.9415 8.00393 17.1586 7.9222 17.408C7.8689 17.4263 7.8104 17.4289 7.7597 17.4498C7.53974 17.3178 7.2841 17.2586 7.0289 17.2807C6.7737 17.3028 6.53184 17.4049 6.3375 17.5728C6.14112 17.7377 6.0005 17.9599 5.93506 18.2087C5.86962 18.4574 5.8826 18.7205 5.9722 18.9615C5.9371 19.0152 5.9228 19.0688 5.8903 19.125C5.63636 19.1675 5.40198 19.2889 5.21994 19.472C5.0379 19.6551 4.9173 19.8909 4.875 20.1463C4.83345 20.395 4.86982 20.6506 4.97905 20.8776C5.08829 21.1047 5.26499 21.2919 5.4847 21.4135C5.4938 21.4958 5.4678 21.5795 5.4847 21.6593C5.32775 21.8515 5.23212 22.0869 5.21031 22.3347C5.18851 22.5825 5.24155 22.8311 5.3625 23.0481C5.6147 23.4888 6.1165 23.7346 6.6222 23.6614C6.6872 23.7228 6.7535 23.7686 6.825 23.8248C6.838 24.3309 7.1591 24.7925 7.6375 24.9691C8.1107 25.143 8.6463 24.9756 8.9778 24.6003C9.0259 24.6029 9.0506 24.6422 9.1 24.6422C9.1533 24.6422 9.2092 24.6029 9.2625 24.6003C9.37479 24.7277 9.51243 24.83 9.6665 24.9005C9.82057 24.971 9.98764 25.0082 10.1569 25.0096C10.2973 25.0096 10.4247 25.0188 10.5625 24.9691C10.796 24.8817 10.9982 24.726 11.143 24.5221C11.2878 24.3182 11.3686 24.0754 11.375 23.8248C11.4439 23.7699 11.5115 23.7228 11.5778 23.6614C11.8246 23.6966 12.0762 23.6571 12.3006 23.5478C12.5249 23.4386 12.7119 23.2646 12.8375 23.0481C12.9587 22.831 13.0119 22.5821 12.9901 22.334C12.9683 22.086 12.8725 21.8503 12.7153 21.658C12.7335 21.5795 12.7036 21.4932 12.7153 21.4135C12.9363 21.2934 13.1142 21.1064 13.2236 20.879C13.3331 20.6515 13.3685 20.3952 13.325 20.1463C13.2827 19.8909 13.1621 19.6551 12.9801 19.472C12.798 19.2889 12.5636 19.1675 12.3097 19.125C12.2785 19.0675 12.2629 19.0165 12.2278 18.9615C12.3177 18.7203 12.3308 18.457 12.2654 18.2079C12.1999 17.9589 12.0591 17.7365 11.8625 17.5715C11.6685 17.4029 11.4264 17.3004 11.171 17.2786C10.9156 17.2567 10.6598 17.3167 10.4403 17.4498C10.3883 17.4289 10.3311 17.4263 10.2778 17.4093C10.1963 17.1597 10.0386 16.9423 9.82712 16.788C9.61565 16.6337 9.36121 16.5505 9.1 16.5502ZM9.1 18.8386C10.2518 18.8386 11.1722 19.7645 11.1722 20.9231C11.1722 22.0843 10.2531 23.0075 9.1 23.0075C8.82744 23.0091 8.55728 22.9562 8.30517 22.852C8.05306 22.7478 7.824 22.5944 7.63127 22.4005C7.43854 22.2066 7.28596 21.9762 7.18238 21.7226C7.07879 21.469 7.02625 21.1972 7.0278 20.9231C7.0278 19.7632 7.9482 18.8386 9.1 18.8386Z" fill="#F4D182"/>
</svg>
