<svg width="32" height="26" viewBox="0 0 32 26" fill="none" xmlns="http://www.w3.org/2000/svg">
<path d="M29.0909 23.1111H32V26H0V23.1111H2.90909V1.44444C2.90909 1.06135 3.06234 0.693954 3.33512 0.423068C3.6079 0.152182 3.97787 0 4.36364 0H18.9091C19.2949 0 19.6648 0.152182 19.9376 0.423068C20.2104 0.693954 20.3636 1.06135 20.3636 1.44444V23.1111H23.2727V8.66667H27.6364C28.0221 8.66667 28.3921 8.81885 28.6649 9.08974C28.9377 9.36062 29.0909 9.72802 29.0909 10.1111V23.1111ZM8.72727 11.5556V14.4444H14.5455V11.5556H8.72727ZM8.72727 5.77778V8.66667H14.5455V5.77778H8.72727Z" fill="#F4D182"/>
</svg>
