<svg width="24" height="26" viewBox="0 0 24 26" fill="none" xmlns="http://www.w3.org/2000/svg">
<path fill-rule="evenodd" clip-rule="evenodd" d="M12.0624 0H11.9376C10.8588 0 9.96 5.6014e-08 9.2472 0.100241C8.4936 0.205494 7.8132 0.438554 7.2672 1.00867C6.72 1.58005 6.4968 2.29051 6.396 3.07614C6.3 3.82169 6.3 4.76145 6.3 5.88665V5.98439C3.8748 6.06708 2.418 6.3628 1.4064 7.42034C-1.43051e-07 8.88761 0 11.2508 0 15.9759C0 20.701 -1.43051e-07 23.0642 1.4064 24.5315C2.8128 25.9987 5.0748 26 9.6 26H14.4C18.9252 26 21.1884 26 22.5936 24.5315C23.9988 23.0629 24 20.701 24 15.9759C24 11.2508 24 8.88761 22.5936 7.42034C21.582 6.3628 20.1252 6.06708 17.7 5.98439V5.88665C17.7 4.76145 17.7 3.82169 17.604 3.0774C17.5032 2.29051 17.28 1.58005 16.7328 1.00993C16.1868 0.438554 15.5064 0.205494 14.7528 0.100241C14.04 5.6014e-08 13.14 0 12.0624 0ZM15.9 5.95431V5.95181C15.9 4.7439 15.8976 3.93195 15.8208 3.32675C15.7452 2.74911 15.6168 2.50101 15.4608 2.33812C15.3048 2.17523 15.0672 2.04116 14.5128 1.96222C13.9344 1.88202 13.1568 1.87952 12 1.87952C10.8432 1.87952 10.0656 1.88202 9.486 1.96347C8.9328 2.04116 8.6952 2.17523 8.5392 2.33937C8.3832 2.50352 8.2548 2.74911 8.1792 3.32675C8.1036 3.93195 8.1 4.7439 8.1 5.95181V5.95431C8.5696 5.95264 9.0696 5.95181 9.6 5.95181H14.4C14.9296 5.95181 15.4296 5.95264 15.9 5.95431ZM18 9.71084C18 10.0432 17.8736 10.3619 17.6485 10.5969C17.4235 10.8318 17.1183 10.9639 16.8 10.9639C16.4817 10.9639 16.1765 10.8318 15.9515 10.5969C15.7264 10.3619 15.6 10.0432 15.6 9.71084C15.6 9.37852 15.7264 9.05982 15.9515 8.82483C16.1765 8.58984 16.4817 8.45783 16.8 8.45783C17.1183 8.45783 17.4235 8.58984 17.6485 8.82483C17.8736 9.05982 18 9.37852 18 9.71084ZM7.2 10.9639C7.51826 10.9639 7.82348 10.8318 8.04853 10.5969C8.27357 10.3619 8.4 10.0432 8.4 9.71084C8.4 9.37852 8.27357 9.05982 8.04853 8.82483C7.82348 8.58984 7.51826 8.45783 7.2 8.45783C6.88174 8.45783 6.57652 8.58984 6.35147 8.82483C6.12643 9.05982 6 9.37852 6 9.71084C6 10.0432 6.12643 10.3619 6.35147 10.5969C6.57652 10.8318 6.88174 10.9639 7.2 10.9639Z" fill="#F4D182"/>
</svg>
