<svg width="17" height="16" viewBox="0 0 17 16" fill="none" xmlns="http://www.w3.org/2000/svg">
<path fill-rule="evenodd" clip-rule="evenodd" d="M0 1.14275C0 0.839673 0.127836 0.549011 0.355385 0.334704C0.582935 0.120397 0.891558 0 1.21336 0C9.93338 0 17 6.65079 17 14.8557C17 15.159 16.8721 15.4499 16.6444 15.6643C16.4167 15.8788 16.1078 15.9992 15.7858 15.9992C15.4638 15.9992 15.155 15.8788 14.9273 15.6643C14.6996 15.4499 14.5717 15.159 14.5717 14.8557C14.5717 7.91391 8.5906 2.2855 1.21336 2.2855C0.891558 2.2855 0.582935 2.1651 0.355385 1.95079C0.127836 1.73649 0 1.44582 0 1.14275ZM1.21336 4.57099C0.891558 4.57099 0.582935 4.69139 0.355385 4.9057C0.127836 5.12 0 5.41067 0 5.71374C0 6.01682 0.127836 6.30748 0.355385 6.52179C0.582935 6.73609 0.891558 6.85649 1.21336 6.85649C2.32929 6.85569 3.43445 7.062 4.46568 7.46364C5.49691 7.86529 6.43399 8.45438 7.22338 9.19726C8.01276 9.94013 8.63897 10.8222 9.06621 11.7931C9.49346 12.7641 9.71336 13.8047 9.71336 14.8557C9.71336 15.1592 9.84137 15.4503 10.0692 15.6649C10.2971 15.8794 10.6061 16 10.9283 16C11.2506 16 11.5596 15.8794 11.7875 15.6649C12.0153 15.4503 12.1433 15.1592 12.1433 14.8557C12.1427 13.5045 11.8595 12.1667 11.3098 10.9185C10.7602 9.6704 9.95494 8.53645 8.94 7.58143C7.92506 6.6264 6.72033 5.869 5.39459 5.35247C4.06885 4.83594 2.64807 4.57039 1.21336 4.57099ZM0 10.2847C0 9.98166 0.127836 9.691 0.355385 9.47669C0.582935 9.26238 0.891558 9.14199 1.21336 9.14199C2.01047 9.14139 2.7999 9.28873 3.53652 9.57561C4.27314 9.86248 4.94251 10.2833 5.50638 10.8139C6.07025 11.3445 6.51756 11.9746 6.82275 12.6681C7.12794 13.3616 7.28502 14.105 7.28502 14.8557C7.28502 15.159 7.1571 15.4499 6.9294 15.6643C6.7017 15.8788 6.39287 15.9992 6.07085 15.9992C5.74883 15.9992 5.44 15.8788 5.2123 15.6643C4.9846 15.4499 4.85668 15.159 4.85668 14.8557C4.85668 14.4053 4.76242 13.9592 4.57929 13.5431C4.39615 13.127 4.12774 12.7489 3.78938 12.4305C3.45103 12.1121 3.04936 11.8597 2.60735 11.6876C2.16535 11.5155 1.69166 11.4271 1.21336 11.4275C0.891558 11.4275 0.582935 11.3071 0.355385 11.0928C0.127836 10.8785 0 10.5878 0 10.2847Z" fill="black"/>
</svg>
