<svg width="30" height="30" viewBox="0 0 30 30" fill="none" xmlns="http://www.w3.org/2000/svg">
<path d="M13.4344 5.62383H18.1313L23.2822 0.462628C23.4277 0.316037 23.6009 0.199685 23.7917 0.120282C23.9825 0.0408802 24.1871 0 24.3938 0C24.6005 0 24.8051 0.0408802 24.9959 0.120282C25.1867 0.199685 25.3598 0.316037 25.5054 0.462628L29.5447 4.51339C29.8363 4.80642 30 5.20282 30 5.616C30 6.02919 29.8363 6.42559 29.5447 6.71862L25.9594 10.3158H13.4344V13.4438C13.4344 13.8586 13.2694 14.2564 12.9758 14.5497C12.6822 14.843 12.284 15.0078 11.8687 15.0078C11.4535 15.0078 11.0553 14.843 10.7617 14.5497C10.4681 14.2564 10.3031 13.8586 10.3031 13.4438V8.75182C10.3031 7.92223 10.633 7.12661 11.2202 6.53999C11.8075 5.95338 12.6039 5.62383 13.4344 5.62383ZM4.04057 13.4438V19.6998L0.455274 23.2814C0.163674 23.5744 0 23.9708 0 24.384C0 24.7972 0.163674 25.1936 0.455274 25.4866L4.49461 29.5374C4.64015 29.684 4.81331 29.8003 5.0041 29.8797C5.19489 29.9591 5.39952 30 5.6062 30C5.81289 30 6.01752 29.9591 6.20831 29.8797C6.3991 29.8003 6.57226 29.684 6.7178 29.5374L13.4344 22.8278H19.6969C20.1121 22.8278 20.5104 22.663 20.804 22.3697C21.0976 22.0764 21.2625 21.6786 21.2625 21.2638V19.6998H22.8282C23.2434 19.6998 23.6416 19.535 23.9352 19.2417C24.2288 18.9484 24.3938 18.5506 24.3938 18.1358V16.5718H25.9594C26.3747 16.5718 26.7729 16.407 27.0665 16.1137C27.3601 15.8204 27.5251 15.4226 27.5251 15.0078V13.4438H16.5656V15.0078C16.5656 15.8374 16.2357 16.633 15.6485 17.2196C15.0613 17.8063 14.2648 18.1358 13.4344 18.1358H10.3031C9.47264 18.1358 8.67619 17.8063 8.08896 17.2196C7.50174 16.633 7.17184 15.8374 7.17184 15.0078V10.3158L4.04057 13.4438Z" fill="#F4D182"/>
</svg>
