<svg width="30" height="31" viewBox="0 0 30 31" fill="none" xmlns="http://www.w3.org/2000/svg">
<path d="M0 12.972C0.5325 12.6108 1.17 12.4 1.8525 12.4C11.1795 12.4 18.7425 20.2073 18.7425 29.8375C18.7425 30.2451 18.6735 30.6357 18.549 31C23.8395 30.9984 26.541 30.938 28.242 29.1214C30 27.2428 30 24.2203 30 18.1737V15.8162C30 12.2683 30 10.495 29.22 9.02565C28.44 7.55625 27.018 6.6433 24.1695 4.8174L21.165 2.89385C18.156 0.9641 16.6515 0 14.988 0C13.3245 0 11.82 0.9641 8.808 2.89385L5.808 4.8174C2.958 6.6433 1.5345 7.5547 0.756 9.02565C0.219 10.0378 0.051 11.1925 0 12.9704" fill="#F4D182"/>
</svg>
