<svg width="193" height="43" viewBox="0 0 193 43" fill="none" xmlns="http://www.w3.org/2000/svg">
<path fill-rule="evenodd" clip-rule="evenodd" d="M0 0H18.9215V18.9215H0V0ZM62.9102 14.1339H64.5075V9.09977C66.5519 9.44177 68.5225 11.5442 68.6749 14.1339H69.8574H70.1593V7.28771H68.4837V9.66615C66.8268 7.48744 64.8756 7.23009 62.9102 7.28771C62.9102 9.5697 62.9102 11.8518 62.9102 14.1339ZM56.1531 14.1372H54.6199V10.5392C54.6199 8.65658 56.1603 7.11604 58.0429 7.11604C59.9258 7.11604 61.4663 8.65658 61.4663 10.5392V14.1372H59.9329V12.4841H56.1531V14.1372ZM59.9329 11.1217V11.0695C59.9329 9.90413 59.4785 8.68345 58.0429 8.64937C56.6549 8.67083 56.1531 9.93457 56.1531 11.0695V11.1217H59.9329ZM83.7521 14.1318H82.2188V10.5339C82.2188 8.65123 83.7592 7.1107 85.6419 7.1107C87.5247 7.1107 89.0651 8.65123 89.0651 10.5339V14.1318H87.5319V12.4788H83.7521V14.1318ZM87.5319 11.1164V11.0641C87.5319 9.89878 87.0775 8.67811 85.6419 8.6441C84.2539 8.66549 83.7521 9.92922 83.7521 11.0641V11.1164H87.5319ZM165.74 14.1318H164.207V10.5339C164.207 8.65123 165.747 7.1107 167.63 7.1107C169.513 7.1107 171.053 8.65123 171.053 10.5339V14.1318H169.52V12.4788H165.74V14.1318ZM169.52 11.1164V11.0641C169.52 9.89878 169.065 8.67811 167.63 8.6441C166.242 8.66549 165.74 9.92922 165.74 11.0641V11.1164H169.52ZM189.713 17.3555H193C193 21.7919 193 26.2283 193 30.6647H189.713C189.713 26.2283 189.713 21.7919 189.713 17.3555ZM162.835 17.3556V17.3555H173.681V20.017H165.824V22.6185H172.785V25.4016H165.824V28.0031H173.681V30.6647H162.835V30.6645C162.835 26.2283 162.835 21.792 162.835 17.3556ZM147.943 20.2874H152.893V30.6647H156.302V20.2874H161.253V17.3555H147.943V20.2874ZM143.01 17.3555H146.298C146.298 21.7919 146.298 26.2283 146.298 30.6647H143.01C143.01 26.2283 143.01 21.7919 143.01 17.3555ZM179.818 14.1026H178.285V10.5046C178.285 8.62176 179.825 7.08144 181.708 7.08144C183.591 7.08144 185.131 8.62176 185.131 10.5046V14.1026H183.598V12.4495H179.818V14.1026ZM183.598 11.087V11.0348C183.598 9.86938 183.143 8.64871 181.708 8.61463C180.32 8.63609 179.818 9.89997 179.818 11.0348V11.087H183.598ZM172.453 12.4527V11.577V7.36471H174.114V12.6813H176.885V14.2111H172.453V12.4527ZM140.419 14.3699C142.453 14.3699 143.854 12.7339 143.847 10.7695C143.84 8.8197 142.434 7.20588 140.419 7.20588C138.382 7.20588 136.989 8.84027 136.992 10.8025C136.995 12.7531 138.405 14.3699 140.419 14.3699ZM142.415 10.7878C142.371 12.1927 141.424 12.8832 140.419 12.8832C139.415 12.8832 138.469 12.1606 138.423 10.7878C138.469 9.41511 139.415 8.69273 140.419 8.69273C141.424 8.69273 142.371 9.38289 142.415 10.7878ZM115.601 14.1474H117.198V9.11336C119.243 9.45521 121.213 11.5576 121.365 14.1474H122.548H122.85V7.30114H121.174V9.67959C119.517 7.50088 117.566 7.24367 115.601 7.30114C115.601 9.58329 115.601 11.8654 115.601 14.1474ZM108.686 14.1195H107.212V13.7002C107.212 12.4419 107.874 11.3308 108.867 10.698C107.874 10.0652 107.212 8.9541 107.212 7.69586V7.27649H108.686C108.641 8.25258 109.103 9.78428 110.769 9.77886C112.399 9.77886 112.899 8.29186 112.852 7.27649H114.327V7.69586C114.327 8.9541 113.665 10.0652 112.672 10.698C113.665 11.3308 114.327 12.4419 114.327 13.7002V14.1195H112.852C112.899 13.1041 112.399 11.6172 110.769 11.6172C109.103 11.6117 108.641 13.1434 108.686 14.1195ZM175.083 20.2875H180.033V30.6647H183.442V20.2875H188.392V17.3555H175.083V20.2875ZM137.669 25.3458H127.716V24.01C127.716 23.9554 127.717 23.9008 127.718 23.8464L127.718 23.839V23.8362C127.72 23.7816 127.722 23.7272 127.725 23.6729L127.725 23.6667C127.728 23.613 127.731 23.5596 127.735 23.5063L127.736 23.5L127.736 23.4989L127.736 23.493C127.74 23.4454 127.744 23.398 127.749 23.3508L127.753 23.3139C127.757 23.2733 127.762 23.2326 127.767 23.1923L127.774 23.1383C127.779 23.1026 127.783 23.0672 127.789 23.0319L127.799 22.9676C127.804 22.934 127.81 22.9007 127.815 22.8673L127.828 22.8004C127.833 22.7715 127.839 22.7425 127.844 22.7137C127.85 22.6854 127.856 22.6571 127.862 22.6289L127.864 22.619L127.869 22.5968L127.874 22.5749L127.878 22.5528C128.547 19.5874 131.211 17.3555 134.371 17.3555H141.025V20.0533H134.363C132.159 20.2445 131.073 22.1254 131.073 22.6744H141.025V24.01C141.025 24.0648 141.025 24.1193 141.023 24.1738L141.023 24.181V24.184C141.022 24.2385 141.019 24.2929 141.017 24.3473L141.016 24.3535C141.014 24.4071 141.01 24.4606 141.006 24.5138L141.006 24.5201L141.006 24.5213L141.005 24.5271C141.002 24.5748 140.997 24.6222 140.992 24.6694L140.989 24.7063C140.984 24.7469 140.98 24.7876 140.975 24.8279L140.968 24.8819C140.963 24.9175 140.958 24.9529 140.953 24.9883L140.943 25.0526C140.938 25.0861 140.932 25.1195 140.926 25.1528L140.914 25.2197L140.897 25.3064C140.892 25.3347 140.886 25.3631 140.88 25.3912L140.878 25.4012L140.873 25.4233L140.868 25.4452L140.863 25.4673C140.194 28.4327 137.531 30.6647 134.371 30.6647H127.716V27.9669H134.378C136.582 27.7757 137.669 25.8947 137.669 25.3458ZM120.129 27.6145C121.185 27.6145 122.525 28.2571 123.076 30.686H126.291C126.291 29.8001 125.686 27.7328 124.231 26.5306C125.433 25.5918 126.209 24.13 126.209 22.4958V22.4956C126.209 19.6803 123.906 17.3769 121.09 17.3769H115.897H113.888H112.828C112.828 21.8133 112.828 26.2496 112.828 30.686H115.897V27.6145H120.129ZM115.897 20.1805V24.8108H120.941C121.93 24.8108 123.257 24.0847 123.257 22.4958C123.257 20.8281 121.881 20.1805 120.941 20.1805H115.897ZM100.376 17.3556V17.3555H111.222V20.017H103.366V22.6185H110.326V25.4016H103.366V28.0031H111.222V30.6647H100.376V30.6645C100.376 26.2283 100.376 21.7919 100.376 17.3556ZM84.7896 17.3555H88.0769V27.3753C93.0232 26.7109 95.6146 22.5666 96.0437 17.3555H99.3111C98.6502 23.8702 95.6763 30.9829 84.7896 30.6647C84.7896 26.2283 84.7896 21.7919 84.7896 17.3555ZM79.7859 17.3658H83.0733C83.0733 21.8022 83.0733 26.2385 83.0733 30.6749H79.7859C79.7859 26.2385 79.7859 21.8022 79.7859 17.3658ZM63.4798 30.6859H66.7676V20.8368C70.742 21.5013 74.3479 26.4779 74.7343 30.6859H77.1088H77.8893V17.3768H74.6019V22.084C71.3971 17.9461 67.3006 17.2652 63.4798 17.3768C63.4798 21.8131 63.4798 26.2496 63.4798 30.6859ZM51.1609 17.3871H48.1006V24.3817C48.1006 28.0416 51.0952 31.0363 54.7553 31.0363C58.4154 31.0363 61.4099 28.0417 61.4099 24.3817V17.3871H58.3497C58.3497 17.935 58.3495 23.9691 58.3491 23.9691C58.3192 26.4117 56.8891 27.8545 54.7553 27.8545C52.6222 27.8545 51.1921 26.3547 51.1617 23.9691C51.1531 21.7757 51.1609 19.5808 51.1609 17.3871ZM189.806 12.5812C190.349 12.5812 191.038 12.9119 191.322 14.1613H193C193 13.7097 192.694 12.6612 191.96 12.0405C192.591 11.5583 193 10.7988 193 9.94815C193 8.49983 191.815 7.31503 190.367 7.31503H188.121H186.662H186.459C186.459 9.59702 186.459 11.8792 186.459 14.1613H188.121V12.5812H189.806ZM188.121 8.72689V11.1693H190.29C190.8 11.1693 191.511 10.9587 191.511 9.94815C191.511 9.00822 190.773 8.72689 190.29 8.72689H188.121ZM160.377 12.4911V14.1026H158.831V12.4911C157.317 12.138 156.181 10.7736 156.181 9.1568V7.31503H157.6C157.6 8.41393 157.6 7.75674 157.6 8.85557V8.90769C157.6 10.1585 158.259 11.0602 159.604 11.0938C160.917 11.0938 161.608 10.1889 161.608 8.90769V8.85557C161.608 7.75674 161.608 8.41393 161.608 7.31503H163.027V9.1568C163.027 10.7737 161.891 12.1382 160.377 12.4911ZM153.035 7.28214H154.696C154.696 9.56421 154.696 11.8464 154.696 14.1283H153.035C153.035 11.8464 153.035 9.56421 153.035 7.28214ZM148.227 14.2936C150.552 14.2936 151.81 12.7524 151.505 9.93219H148.129V11.1995H150.092C150.088 13.4333 146.368 13.538 146.365 10.7878C146.385 9.64373 147.075 8.65168 148.351 8.61032H151.141L151.141 8.60928L151.492 8.61047V7.28214H148.227H148.129V7.2834C146.188 7.33493 144.87 8.91348 144.872 10.8023C144.875 12.7111 146.256 14.2936 148.227 14.2936ZM131.788 12.3613V11.4854V7.2733H133.449V12.5899H136.221V14.1195H131.788V12.3613ZM127.319 14.2809C129.352 14.2809 130.754 12.645 130.746 10.6805C130.739 8.73068 129.334 7.117 127.319 7.117C125.281 7.117 123.889 8.75147 123.891 10.7137C123.894 12.6641 125.305 14.2809 127.319 14.2809ZM129.315 10.699C129.27 12.1037 128.324 12.7941 127.319 12.7941C126.315 12.7941 125.369 12.0716 125.323 10.699C125.369 9.32624 126.315 8.60371 127.319 8.60371C128.324 8.60371 129.27 9.29386 129.315 10.699ZM92.5743 8.6888H95.1099V14.1195H96.8851V8.6888H99.4205V7.2733H92.5743V8.6888ZM100.527 12.3857V11.5617V11.51V7.29766H106.106V8.71315H102.034V9.99441H105.645V11.4475H102.034V12.7492H106.106V14.144H100.527V14.1439V12.3857ZM74.5807 7.28563H76.2417V12.4702C78.8881 12.3397 80.3072 9.6914 80.4001 7.28563H82.0505C81.7106 10.6367 80.1809 14.2956 74.5807 14.132C74.5807 11.8498 74.5807 9.56777 74.5807 7.28563ZM49.8573 11.9829H52.9817V10.3012H49.6666V8.73884H53.8539V7.28563H48.1006V9.04379V9.91971V14.1318H49.6666V11.9829H49.8573ZM38.5999 23.9362V19.6784H19.6784V42.3842C29.9131 42.3842 38.3196 34.1078 38.5999 23.9362ZM24.0242 25.0687H27.2779V31.9058H29.9704V25.0687H33.2241V22.706H24.0242V25.0687ZM38.5999 0H19.6784V18.9215H38.5999V0ZM30.7358 10.468H24.0242V9.46063C24.0242 9.42298 24.0248 9.38527 24.0256 9.34755L24.0258 9.34249V9.34056C24.0268 9.30285 24.0283 9.26513 24.0303 9.2277L24.0305 9.2234C24.0322 9.18635 24.0348 9.14937 24.0374 9.11247L24.0377 9.10816L24.0379 9.10742L24.0383 9.10326C24.0408 9.07044 24.0438 9.03763 24.0469 9.00488L24.0496 8.97964C24.0526 8.95142 24.0558 8.92343 24.0593 8.89536L24.0641 8.85809C24.0673 8.83359 24.0708 8.80901 24.0744 8.78451L24.0813 8.7401C24.085 8.71694 24.0889 8.69399 24.0928 8.67083L24.1012 8.62457C24.105 8.60453 24.1088 8.58463 24.1128 8.56458C24.1167 8.54498 24.1207 8.52553 24.1248 8.50615L24.1265 8.49931L24.1298 8.48387L24.133 8.46858L24.1364 8.45343C24.5989 6.40361 26.4399 4.86092 28.6242 4.86092H33.2241V7.02872H28.4512C26.9275 7.16089 26.5124 8.07401 26.5124 8.45343H33.2241V9.46063C33.2241 9.49849 33.2236 9.53622 33.2227 9.57394L33.2225 9.57898V9.58091C33.2214 9.61878 33.22 9.65635 33.2181 9.69377L33.2179 9.69808C33.216 9.73521 33.2138 9.77225 33.2108 9.80893L33.2105 9.81331L33.2104 9.81413L33.2101 9.81821C33.2075 9.85103 33.2046 9.88378 33.2012 9.91645L33.1988 9.94199C33.1958 9.96998 33.1925 9.99819 33.189 10.0262L33.1841 10.0634C33.1809 10.0879 33.1775 10.1124 33.1739 10.137L33.1671 10.1814C33.1633 10.2045 33.1595 10.2276 33.1554 10.2506L33.147 10.2969L33.1355 10.3568C33.1316 10.3765 33.1276 10.396 33.1235 10.4153L33.1219 10.4223L33.1187 10.4376L33.1153 10.4528L33.1118 10.468C32.6495 12.5179 30.8084 14.0606 28.6241 14.0606H24.0242V11.8929H28.7974C30.3208 11.7607 30.7358 10.8474 30.7358 10.468ZM0 23.9362V19.6784H18.9215V42.3842C8.68687 42.3842 0.280293 34.1078 0 23.9362ZM7.94919 31.76H5.58181V26.9252C5.58181 24.3954 7.65175 22.3253 10.1817 22.3253C12.7116 22.3253 14.7814 24.3953 14.7814 26.9252V31.76H12.4142V29.3142H7.94919V31.76ZM12.4136 27.195C12.3867 25.5169 11.3172 24.6927 10.1817 24.6927C9.04661 24.6927 7.97734 25.5558 7.94971 27.195H12.4136ZM7.94919 4.86953H5.58181V9.70424C5.58181 12.2342 7.65175 14.3042 10.1817 14.3042C12.7116 14.3042 14.7814 12.2342 14.7814 9.70424V4.86953H12.4142V9.36982C12.4142 11.0915 11.3317 11.9369 10.1817 11.9369C9.03176 11.9369 7.94919 11.0509 7.94919 9.36982V4.86953Z" fill="#F4D182"/>
</svg>
